<?xml version="1.0" standalone="no"?>
<!DOCTYPE svg PUBLIC "-//W3C//DTD SVG 20010904//EN"
 "http://www.w3.org/TR/2001/REC-SVG-20010904/DTD/svg10.dtd">
<svg version="1.0" xmlns="http://www.w3.org/2000/svg"
 width="512.000000pt" height="512.000000pt" viewBox="0 0 512.000000 512.000000"
 preserveAspectRatio="xMidYMid meet">
<metadata>
Created by potrace 1.14, written by Peter Selinger 2001-2017
</metadata>
<g transform="translate(0.000000,512.000000) scale(0.100000,-0.100000)"
fill="#000000" stroke="none">
<path d="M2270 5083 c-177 -19 -445 -85 -620 -153 -742 -288 -1300 -895 -1527
-1660 -68 -233 -86 -355 -91 -649 -6 -375 21 -564 124 -871 278 -829 965
-1457 1819 -1660 199 -48 321 -60 583 -60 318 0 507 28 767 111 413 132 752
343 1056 656 359 371 589 819 681 1328 21 118 23 158 23 435 0 251 -3 323 -18
405 -100 550 -319 982 -692 1364 -407 417 -933 680 -1505 751 -78 9 -519 12
-600 3z m365 -467 c281 -44 523 -133 782 -288 258 -155 533 -431 692 -693 196
-324 301 -706 301 -1097 0 -93 -4 -168 -8 -168 -13 0 -107 102 -142 153 -80
120 -168 358 -280 762 -77 277 -158 521 -208 629 -163 346 -373 429 -666 262
-43 -25 -101 -63 -130 -85 l-51 -40 -209 -513 c-461 -1127 -575 -1403 -585
-1406 -5 -2 -32 9 -60 23 -174 88 -495 113 -758 59 -339 -68 -689 -287 -828
-517 -22 -37 -43 -66 -46 -67 -9 0 -103 241 -127 325 -64 222 -87 408 -79 655
6 192 20 296 64 465 186 716 749 1290 1458 1489 90 25 279 61 365 70 85 8 425
-4 515 -18z m671 -1347 c129 -61 235 -187 390 -459 230 -405 298 -503 409
-588 94 -70 146 -87 265 -86 79 0 107 5 165 28 83 32 181 89 271 157 36 27 67
49 70 49 9 0 -55 -77 -134 -161 -118 -125 -213 -187 -334 -218 l-71 -18 -34
-104 c-62 -191 -210 -466 -332 -619 -321 -402 -735 -659 -1235 -765 -244 -52
-597 -52 -831 0 -259 57 -520 164 -721 293 l-76 49 103 7 c302 20 546 97 761
239 207 136 310 262 457 556 86 171 156 336 214 506 25 72 81 218 125 325 234
573 335 817 344 834 9 16 18 18 70 12 35 -3 87 -19 124 -37z m-1466 -1080
c-363 -56 -610 -162 -839 -360 -90 -77 -192 -213 -231 -306 -41 -99 -57 -205
-42 -285 6 -34 10 -63 8 -65 -2 -2 -29 30 -60 71 -48 65 -56 82 -56 119 0 144
120 360 271 488 245 208 610 348 904 347 92 0 95 -1 45 -9z"/>
<path d="M2381 4472 c-2 -47 -29 -81 -78 -95 l-47 -14 47 -11 c50 -13 66 -32
77 -92 l7 -35 12 45 c17 59 26 68 78 82 l45 11 -48 16 c-48 16 -55 24 -82 91
-11 25 -11 25 -11 2z"/>
<path d="M1192 3265 c-15 -98 -43 -158 -86 -184 -18 -11 -72 -27 -121 -36 -99
-17 -118 -25 -59 -25 55 0 151 -26 185 -51 41 -29 65 -81 80 -174 l13 -80 13
79 c15 87 44 149 83 178 14 10 66 27 115 37 50 11 88 20 85 20 -3 1 -40 8 -82
16 -136 24 -175 66 -200 220 l-14 80 -12 -80z"/>
<path d="M2316 3275 c-18 -51 -34 -71 -64 -80 -36 -10 -43 -25 -12 -25 27 0
70 -43 70 -70 0 -11 5 -20 10 -20 6 0 10 9 10 20 0 27 43 70 70 70 11 0 20 5
20 10 0 6 -9 10 -19 10 -30 0 -62 32 -70 70 -7 29 -9 32 -15 15z"/>
</g>
</svg>
